<?xml version="1.0" encoding="utf-8"?>
<svg viewBox="-0.203 30.4477 84.9518 31.5857" xmlns="http://www.w3.org/2000/svg">
  <defs>
    <linearGradient id="Sfumatura_senza_nome_2" x1="-1877.07" y1="-12541.4" x2="-1838.63" y2="-12541.4" gradientTransform="matrix(1, 0, 0, -1, 1911.70385, -12492.020653)" gradientUnits="userSpaceOnUse">
      <stop offset="0.29" stop-color="#fff"/>
      <stop offset="0.39" stop-color="#f7bbc3"/>
      <stop offset="0.48" stop-color="#f07b8a"/>
      <stop offset="0.58" stop-color="#ea485d"/>
      <stop offset="0.65" stop-color="#e6243c"/>
      <stop offset="0.72" stop-color="#e30d28"/>
      <stop offset="0.76" stop-color="#e20521"/>
      <stop offset="1" stop-color="#e20521"/>
    </linearGradient>
  </defs>
  <g class="cls-49" style="isolation: isolate;" transform="matrix(1, 0, 0, 0.9340680837631226, 9.23854616284369, -23.32225799560547)">
    <g id="_ÎÓÈ_1" data-name="—ÎÓÈ_1">
      <g transform="matrix(1, 0, 0, 1, 8.156264, 17.567341)">
        <path class="cls-113" d="M 42.614 58.77 L 46.474 49.12 L 50.144 49.12 L 46.284 58.77 L 42.614 58.77 Z" style="fill: rgb(255, 255, 255);"/>
        <path class="cls-113" d="M 50.824 58.77 L 50.824 49.12 L 54.734 49.12 L 54.404 52.61 C 54.354 53.12 54.304 53.55 54.234 53.9 C 54.17 54.237 54.086 54.571 53.984 54.9 L 54.054 54.9 C 54.234 54.57 54.434 54.23 54.664 53.9 C 54.894 53.57 55.154 53.15 55.454 52.73 L 58.004 49.16 L 61.904 49.16 L 54.224 58.81 L 50.824 58.77 Z" style="fill: rgb(255, 255, 255);"/>
        <path class="cls-113" d="M 56.294 58.77 L 63.354 49.12 L 67.354 49.12 L 67.354 58.77 L 63.524 58.77 L 63.634 57.51 L 60.904 57.51 L 60.154 58.73 L 56.294 58.77 Z M 62.294 55.26 L 63.794 55.26 L 63.904 54.17 C 63.904 53.61 64.004 53.17 64.054 52.89 C 64.103 52.602 64.17 52.319 64.254 52.04 L 64.194 52.04 C 64.072 52.33 63.935 52.613 63.784 52.89 C 63.624 53.18 63.364 53.61 63.014 54.17 L 62.294 55.26 Z" style="fill: rgb(255, 255, 255);"/>
        <path class="cls-113" d="M -10.156 52.95 C -10.447 52.666 -10.785 52.435 -11.156 52.27 C -11.471 52.128 -11.811 52.053 -12.156 52.05 C -12.666 52.023 -13.163 52.212 -13.526 52.57 C -14.206 53.36 -14.206 54.529 -13.526 55.32 C -13.178 55.669 -12.699 55.854 -12.206 55.83 C -11.861 55.825 -11.521 55.75 -11.206 55.61 C -10.808 55.433 -10.434 55.205 -10.096 54.93 L -10.206 58.56 C -10.572 58.717 -10.955 58.834 -11.346 58.91 C -11.718 58.99 -12.096 59.03 -12.476 59.03 C -12.934 59.028 -13.39 58.974 -13.836 58.87 C -14.246 58.769 -14.643 58.617 -15.016 58.42 C -16.648 57.538 -17.646 55.814 -17.596 53.96 C -17.6 53.276 -17.474 52.597 -17.226 51.96 C -16.969 51.342 -16.584 50.787 -16.096 50.33 C -15.62 49.863 -15.056 49.495 -14.436 49.25 C -13.781 49.006 -13.086 48.884 -12.386 48.89 C -12 48.889 -11.614 48.93 -11.236 49.01 C -10.849 49.087 -10.473 49.212 -10.116 49.38 L -10.156 52.95 Z" style="fill: rgb(255, 255, 255);"/>
        <path class="cls-113" d="M -8.766 58.77 L -8.766 49.12 L -5.296 49.12 L -5.296 55.64 L -1.916 55.64 L -1.916 58.77 L -8.766 58.77 Z" style="fill: rgb(255, 255, 255);"/>
        <path class="cls-113" d="M -1.236 58.77 L 2.204 49.12 L 6.074 49.12 L 9.444 58.77 L 5.714 58.77 L 5.404 57.56 L 2.784 57.56 L 2.494 58.77 L -1.236 58.77 Z M 3.364 55.26 L 4.814 55.26 L 4.514 54.17 C 4.364 53.61 4.274 53.17 4.214 52.89 C 4.154 52.61 4.134 52.31 4.114 52.05 L 4.064 52.05 C 4.064 52.31 4.014 52.59 3.964 52.89 C 3.914 53.19 3.804 53.61 3.664 54.17 L 3.364 55.26 Z" style="fill: rgb(255, 255, 255);"/>
        <path class="cls-113" d="M 9.844 57.94 L 10.954 55.24 C 11.368 55.541 11.814 55.796 12.284 56 C 12.627 56.153 12.998 56.238 13.374 56.25 C 13.56 56.253 13.744 56.205 13.904 56.11 C 14.033 56.032 14.11 55.89 14.104 55.74 C 14.104 55.48 13.764 55.27 13.104 55.13 L 12.594 55.02 C 11.944 54.896 11.352 54.566 10.904 54.08 C 10.516 53.611 10.314 53.017 10.334 52.41 C 10.303 51.442 10.711 50.512 11.444 49.88 C 12.26 49.196 13.3 48.84 14.364 48.88 C 14.918 48.878 15.47 48.952 16.004 49.1 C 16.568 49.254 17.112 49.475 17.624 49.76 L 16.604 52.3 C 16.297 52.07 15.96 51.881 15.604 51.74 C 15.286 51.611 14.947 51.543 14.604 51.54 C 14.408 51.527 14.214 51.572 14.044 51.67 C 13.919 51.737 13.842 51.868 13.844 52.01 C 13.844 52.28 14.324 52.52 15.284 52.72 L 15.644 52.8 C 16.257 52.918 16.811 53.243 17.214 53.72 C 17.6 54.189 17.806 54.782 17.794 55.39 C 17.82 56.393 17.394 57.355 16.634 58.01 C 15.792 58.702 14.723 59.059 13.634 59.01 C 12.991 59.009 12.351 58.918 11.734 58.74 C 11.073 58.551 10.439 58.283 9.844 57.94 Z" style="fill: rgb(255, 255, 255);"/>
        <path class="cls-113" d="M 18.134 57.94 L 19.234 55.24 C 19.65 55.538 20.095 55.793 20.564 56 C 20.911 56.153 21.284 56.238 21.664 56.25 C 21.86 56.259 22.055 56.21 22.224 56.11 C 22.35 56.03 22.426 55.889 22.424 55.74 C 22.424 55.48 22.084 55.27 21.424 55.13 L 20.904 55.02 C 20.267 54.893 19.688 54.563 19.254 54.08 C 18.863 53.613 18.656 53.018 18.674 52.41 C 18.646 51.44 19.058 50.511 19.794 49.88 C 20.609 49.195 21.65 48.838 22.714 48.88 C 23.265 48.878 23.813 48.952 24.344 49.1 C 24.912 49.252 25.46 49.473 25.974 49.76 L 24.904 52.3 C 24.595 52.072 24.259 51.884 23.904 51.74 C 23.586 51.612 23.247 51.544 22.904 51.54 C 22.708 51.527 22.514 51.572 22.344 51.67 C 22.219 51.737 22.142 51.868 22.144 52.01 C 22.144 52.28 22.624 52.52 23.584 52.72 L 23.944 52.8 C 24.556 52.921 25.109 53.245 25.514 53.72 C 25.897 54.19 26.099 54.783 26.084 55.39 C 26.111 56.397 25.677 57.362 24.904 58.01 C 24.064 58.707 22.994 59.063 21.904 59.01 C 21.261 59.009 20.621 58.918 20.004 58.74 C 19.349 58.554 18.721 58.285 18.134 57.94 Z" style="fill: rgb(255, 255, 255);"/>
        <path class="cls-113" d="M 26.764 58.77 L 26.764 49.12 L 33.224 49.12 L 33.224 51.74 L 30.164 51.74 L 30.164 52.67 L 32.904 52.67 L 32.904 55.14 L 30.164 55.14 L 30.164 56.14 L 33.294 56.14 L 33.294 58.76 L 26.764 58.77 Z" style="fill: rgb(255, 255, 255);"/>
        <path class="cls-114" d="M 38.174 54.59 C 38.354 54.19 42.004 35.65 63.484 40.95 C 49.564 40.67 44.484 49.22 39.654 56.63 C 38.654 58.2 38.334 58.77 38.334 58.77 L 34.754 58.77 L 34.754 49.12 L 38.664 49.12 L 38.334 52.61 C 38.284 53.12 38.224 53.55 38.164 53.9 C 38.105 54.239 38.021 54.573 37.914 54.9 L 38.044 54.9 C 38.104 54.78 38.134 54.71 38.174 54.59 Z" style="fill: url('#Sfumatura_senza_nome_2');"/>
      </g>
    </g>
  </g>
  <path d="M 33.628 28.585 L 33.203 27.56 L 35.665 24.935 Q 35.89 24.697 36.153 24.391 Q 36.415 24.085 36.665 23.76 Q 36.915 23.435 37.072 23.135 Q 37.228 22.835 37.228 22.61 Q 37.228 22.485 37.153 22.366 Q 37.078 22.247 36.922 22.166 Q 36.765 22.085 36.503 22.085 Q 36.265 22.085 36.072 22.185 Q 35.878 22.285 35.684 22.516 Q 35.49 22.747 35.265 23.135 L 33.303 22.135 Q 33.59 21.41 34.115 20.829 Q 34.64 20.247 35.322 19.91 Q 36.003 19.572 36.753 19.585 Q 37.553 19.597 38.215 19.929 Q 38.878 20.26 39.278 20.847 Q 39.678 21.435 39.678 22.222 Q 39.678 22.472 39.622 22.747 Q 39.565 23.022 39.447 23.322 Q 39.328 23.622 39.128 23.966 Q 38.928 24.31 38.64 24.691 Q 38.353 25.072 37.965 25.497 L 35.978 27.66 L 35.728 26.285 L 40.153 26.285 L 40.153 28.585 Z" transform="matrix(1, 0, 0, 1, -0.202985, 30.447701)" style="fill: rgb(255, 255, 255);"/>
  <path d="M 41.786 28.722 Q 41.198 28.722 40.873 28.397 Q 40.548 28.072 40.548 27.472 Q 40.548 26.922 40.892 26.572 Q 41.236 26.222 41.786 26.222 Q 42.373 26.222 42.698 26.547 Q 43.023 26.872 43.023 27.472 Q 43.023 28.022 42.68 28.372 Q 42.336 28.722 41.786 28.722 Z" transform="matrix(1, 0, 0, 1, -0.202985, 30.447701)" style="fill: rgb(255, 255, 255);"/>
  <path d="M 48.043 28.71 Q 46.73 28.71 45.818 28.185 Q 44.905 27.66 44.43 26.654 Q 43.955 25.647 43.955 24.21 Q 43.955 22.772 44.43 21.766 Q 44.905 20.76 45.818 20.235 Q 46.73 19.71 48.043 19.71 Q 49.355 19.71 50.274 20.235 Q 51.193 20.76 51.668 21.766 Q 52.143 22.772 52.143 24.21 Q 52.143 25.647 51.668 26.654 Q 51.193 27.66 50.274 28.185 Q 49.355 28.71 48.043 28.71 Z M 48.043 26.485 Q 48.78 26.485 49.18 25.897 Q 49.58 25.31 49.58 24.21 Q 49.58 23.047 49.18 22.429 Q 48.78 21.81 48.043 21.81 Q 47.305 21.81 46.905 22.429 Q 46.505 23.047 46.505 24.21 Q 46.505 25.31 46.905 25.897 Q 47.305 26.485 48.043 26.485 Z" transform="matrix(1, 0, 0, 1, -0.202985, 30.447701)" style="fill: rgb(255, 255, 255);"/>
</svg>